<?xml version="1.0" encoding="UTF-8" ?>
<svg width="21.00mm" height="26.75mm" xmlns="http://www.w3.org/2000/svg" version="1.1">
<g id="100">
<polyline fill="none" stroke="#312B2B" stroke-width="1.0" stroke-opacity="1" points="
8.50,71.81
12.28,68.98
9.45,68.98
10.39,72.76
19.84,70.87
11.34,70.87
9.45,80.31
5.67,77.48
9.45,77.48
8.50,71.81
9.45,71.81
9.45,73.70
4.72,79.37
7.56,80.31
6.61,79.37
5.67,81.26
28.35,81.26
32.13,87.87
36.85,89.76
33.07,85.04
34.02,87.87
31.18,85.04
31.18,84.09
27.40,83.15
20.79,77.48
25.51,79.37
25.51,80.31
26.46,80.31
27.40,82.20
28.35,82.20
28.35,85.98
38.74,92.60
47.24,90.71
58.58,69.92
59.53,78.43
68.98,82.20
62.36,76.54
53.86,75.59
52.91,68.03
57.64,72.76
56.69,74.65
53.86,69.92
54.80,74.65
63.31,82.20
62.36,77.48
60.47,77.48
64.25,79.37
62.36,80.31
66.14,83.15
73.70,83.15
69.92,80.31
68.03,80.31
69.92,82.20
70.87,80.31
71.81,80.31
70.87,82.20
44.41,90.71
46.30,86.93
49.13,85.98
45.35,89.76
53.86,76.54
50.08,68.03
52.91,71.81
51.02,67.09
51.97,68.03
57.64,69.92
56.69,70.87
55.75,71.81
55.75,69.92
56.69,68.98
57.64,68.98
55.75,90.71
50.08,89.76
42.52,93.54
39.69,91.65
36.85,90.71
34.96,91.65
37.80,92.60
18.90,82.20
13.23,82.20
10.39,78.43
10.39,80.31
8.50,78.43
8.50,75.59
7.56,78.43
8.50,80.31
22.68,80.31
23.62,79.37
24.57,78.43
16.06,72.76
18.90,71.81
17.95,72.76
16.06,69.92
21.73,68.98
20.79,69.92
19.84,69.92
18.90,68.03
20.79,67.09
21.73,67.09
22.68,67.09
22.68,68.98
19.84,71.81
17.95,74.65
21.73,79.37
17.95,87.87
24.57,85.98
26.46,83.15
18.90,86.93
14.17,83.15
20.79,85.04
25.51,82.20
23.62,82.20
21.73,83.15
22.68,83.15
12.28,68.03
11.34,68.03
10.39,68.03
12.28,79.37
15.12,79.37
11.34,68.98
14.17,71.81
17.95,68.98
21.73,68.03
12.28,73.70
12.28,74.65
17.95,89.76
27.40,87.87
32.13,85.04
32.13,84.09
31.18,83.15
30.24,83.15
26.46,85.04
35.91,87.87
33.07,92.60
35.91,92.60
40.63,93.54
42.52,92.60
44.41,93.54
47.24,91.65
51.97,90.71
54.80,88.82
62.36,86.93
57.64,76.54
58.58,74.65
57.64,78.43
58.58,77.48
61.42,78.43
60.47,81.26
62.36,82.20
58.58,85.04
60.47,85.04
61.42,82.20
64.25,85.04
73.70,84.09
73.70,85.04
63.31,83.15
66.14,80.31
66.14,82.20
67.09,82.20
67.09,79.37
68.98,79.37
50.08,79.37
51.97,85.04
47.24,85.04
47.24,85.98
46.30,85.98
55.75,78.43
55.75,76.54
52.91,72.76
51.97,78.43
53.86,77.48
54.80,78.43
52.91,86.93
50.08,86.93
47.24,88.82
45.35,86.93
61.42,90.71
57.64,80.31
56.69,87.87
59.53,89.76
59.53,86.93
57.64,86.93
57.64,85.04
52.91,81.26
51.97,80.31
51.97,80.31
50.08,81.26
50.08,84.09
49.13,85.04
51.02,85.98
51.97,85.98
52.91,82.20
51.97,83.15
54.80,85.98
54.80,84.09
54.80,81.26
55.75,80.31
55.75,82.20
74.65,81.26
73.70,82.20
74.65,84.09
74.65,82.20
73.70,81.26
69.92,88.82
66.14,85.98
70.87,85.98
51.02,68.98
50.08,67.09
38.74,67.09
42.52,65.20
45.35,66.14
60.47,43.46
60.47,16.06
56.69,21.73
58.58,12.28
60.47,15.12
62.36,42.52
55.75,27.40
46.30,27.40
48.19,26.46
50.08,26.46
59.53,25.51
59.53,32.13
56.69,28.35
59.53,18.90
58.58,24.57
60.47,48.19
58.58,44.41
57.64,49.13
59.53,48.19
58.58,48.19
58.58,47.24
59.53,47.24
61.42,45.35
61.42,41.57
61.42,35.91
63.31,33.07
63.31,39.69
54.80,17.95
58.58,17.95
57.64,11.34
52.91,10.39
54.80,12.28
56.69,12.28
56.69,14.17
56.69,17.01
57.64,22.68
63.31,27.40
62.36,23.62
61.42,17.01
61.42,15.12
60.47,14.17
59.53,15.12
59.53,16.06
58.58,19.84
59.53,23.62
61.42,21.73
61.42,20.79
61.42,20.79
49.13,26.46
57.64,30.24
59.53,43.46
58.58,43.46
58.58,41.57
58.58,40.63
62.36,30.24
62.36,27.40
62.36,25.51
63.31,24.57
63.31,23.62
52.91,30.24
55.75,30.24
56.69,31.18
46.30,26.46
43.46,27.40
38.74,28.35
32.13,38.74
36.85,34.96
34.96,35.91
36.85,36.85
34.02,37.80
33.07,35.91
32.13,37.80
32.13,36.85
33.07,34.02
20.79,11.34
30.24,11.34
20.79,14.17
27.40,13.23
23.62,15.12
21.73,16.06
23.62,18.90
19.84,14.17
31.18,7.56
36.85,9.45
30.24,9.45
28.35,8.50
23.62,10.39
24.57,9.45
25.51,10.39
27.40,10.39
32.13,10.39
40.63,6.61
36.85,10.39
34.96,10.39
29.29,7.56
34.96,5.67
34.96,7.56
38.74,6.61
37.80,8.50
38.74,9.45
36.85,11.34
17.01,17.95
11.34,32.13
12.28,43.46
19.84,43.46
13.23,39.69
18.90,39.69
12.28,34.96
13.23,38.74
16.06,38.74
14.17,36.85
12.28,37.80
11.34,39.69
18.90,51.97
22.68,52.91
20.79,59.53
20.79,52.91
21.73,51.02
18.90,50.08
21.73,50.08
22.68,59.53
22.68,60.47
20.79,60.47
21.73,58.58
21.73,59.53
23.62,55.75
23.62,57.64
22.68,54.80
23.62,54.80
12.28,33.07
10.39,28.35
12.28,25.51
12.28,28.35
10.39,30.24
10.39,32.13
11.34,38.74
16.06,42.52
13.23,41.57
16.06,45.35
19.84,44.41
17.01,40.63
19.84,41.57
19.84,37.80
17.95,37.80
18.90,38.74
17.01,37.80
14.17,34.96
15.12,34.96
13.23,45.35
16.06,49.13
14.17,45.35
17.01,46.30
17.01,44.41
16.06,44.41
16.06,44.41
18.90,40.63
18.90,40.63
19.84,42.52
20.79,43.46
20.79,44.41
16.06,47.24
19.84,49.13
17.01,50.08
17.95,49.13
19.84,51.02
18.90,51.02
18.90,51.02
20.79,57.64
23.62,58.58
22.68,61.42
21.73,61.42
21.73,60.47
19.84,57.64
19.84,58.58
20.79,53.86
23.62,53.86
21.73,55.75
21.73,56.69
21.73,56.69
9.45,32.13
14.17,23.62
15.12,26.46
14.17,26.46
14.17,27.40
16.06,26.46
15.12,24.57
16.06,24.57
20.79,12.28
18.90,14.17
23.62,20.79
25.51,18.90
32.13,17.95
31.18,16.06
33.07,16.06
31.18,17.01
29.29,17.01
24.57,16.06
29.29,12.28
24.57,12.28
22.68,10.39
22.68,13.23
25.51,14.17
17.01,17.01
18.90,15.12
17.95,15.12
16.06,17.95
10.39,36.85
10.39,39.69
11.34,40.63
11.34,41.57
11.34,42.52
13.23,42.52
18.90,37.80
19.84,34.96
17.95,36.85
16.06,35.91
15.12,34.02
13.23,34.96
12.28,34.02
12.28,34.02
13.23,37.80
14.17,37.80
20.79,40.63
20.79,42.52
15.12,41.57
14.17,47.24
15.12,47.24
16.06,46.30
14.17,44.41
13.23,44.41
12.28,44.41
13.23,40.63
15.12,39.69
19.84,28.35
21.73,30.24
19.84,31.18
18.90,34.96
20.79,37.80
20.79,34.96
20.79,31.18
18.90,29.29
17.01,25.51
13.23,25.51
13.23,23.62
10.39,27.40
11.34,27.40
10.39,29.29
11.34,30.24
14.17,28.35
22.68,16.06
20.79,15.12
21.73,15.12
26.46,8.50
25.51,8.50
26.46,9.45
34.02,7.56
34.02,6.61
36.85,6.61
58.58,14.17
60.47,13.23
58.58,11.34
51.97,11.34
51.97,9.45
54.80,9.45
55.75,10.39
56.69,10.39
54.80,25.51
56.69,24.57
55.75,24.57
52.91,25.51
54.80,28.35
46.30,28.35
44.41,26.46
42.52,26.46
39.69,27.40
58.58,15.12
57.64,17.01
63.31,37.80
63.31,31.18
62.36,32.13
62.36,32.13
46.30,36.85
51.02,37.80
49.13,36.85
51.02,36.85
47.24,37.80
51.02,34.96
47.24,35.91
49.13,38.74
" />
<polyline fill="none" stroke="#312B2B" stroke-width="1.0" stroke-opacity="1" points="
37.80,93.54
45.35,88.82
51.97,93.54
53.86,91.65
51.97,91.65
50.08,91.65
49.13,90.71
46.30,93.54
45.35,93.54
43.46,90.71
43.46,90.71
20.79,90.71
29.29,88.82
31.18,89.76
29.29,89.76
27.40,89.76
23.62,87.87
29.29,85.04
30.24,85.04
33.07,85.98
30.24,87.87
33.07,91.65
24.57,91.65
16.06,83.15
17.95,83.15
20.79,84.09
24.57,86.93
18.90,88.82
19.84,87.87
10.39,82.20
6.61,82.20
5.67,80.31
4.72,80.31
4.72,81.26
9.45,86.93
8.50,83.15
10.39,83.15
17.01,88.82
17.01,75.59
14.17,73.70
13.23,71.81
12.28,71.81
19.84,67.09
18.90,79.37
23.62,78.43
24.57,80.31
25.51,78.43
27.40,80.31
26.46,82.20
22.68,85.98
21.73,85.98
17.95,85.04
12.28,90.71
21.73,89.76
18.90,90.71
24.57,93.54
23.62,91.65
38.74,94.49
43.46,93.54
43.46,93.54
36.85,88.82
35.91,88.82
32.13,88.82
34.02,85.98
33.07,84.09
36.85,87.87
34.02,86.93
33.07,90.71
38.74,95.43
35.91,95.43
34.02,94.49
35.91,94.49
36.85,94.49
55.75,93.54
53.86,88.82
54.80,89.76
60.47,91.65
61.42,85.98
66.14,87.87
62.36,84.09
64.25,89.76
74.65,85.98
74.65,85.04
71.81,88.82
51.02,70.87
63.31,76.54
63.31,78.43
60.47,75.59
58.58,71.81
58.58,73.70
57.64,74.65
54.80,68.98
54.80,70.87
53.86,70.87
52.91,68.98
52.91,69.92
51.97,68.98
51.97,67.09
47.24,64.25
62.36,43.46
60.47,41.57
60.47,39.69
62.36,38.74
62.36,40.63
56.69,26.46
55.75,26.46
54.80,27.40
56.69,33.07
54.80,31.18
54.80,32.13
53.86,31.18
53.86,18.90
55.75,22.68
47.24,26.46
45.35,21.73
49.13,19.84
50.08,8.50
41.57,6.61
38.74,10.39
36.85,7.56
23.62,14.17
24.57,15.12
23.62,17.95
24.57,17.01
31.18,18.90
27.40,20.79
24.57,21.73
24.57,20.79
23.62,19.84
22.68,20.79
20.79,17.95
19.84,17.95
20.79,19.84
22.68,21.73
25.51,22.68
17.01,49.13
16.06,48.19
15.12,48.19
22.68,50.08
22.68,51.97
22.68,51.97
23.62,52.91
22.68,51.02
19.84,43.46
21.73,54.80
23.62,61.42
23.62,59.53
24.57,55.75
35.91,67.09
38.74,65.20
41.57,65.20
42.52,66.14
43.46,66.14
44.41,65.20
46.30,66.14
48.19,64.25
49.13,62.36
54.80,49.13
51.02,52.91
52.91,50.08
52.91,51.97
54.80,51.02
56.69,50.08
55.75,49.13
57.64,45.35
60.47,44.41
59.53,46.30
57.64,46.30
59.53,48.19
61.42,46.30
61.42,46.30
61.42,47.24
58.58,50.08
61.42,22.68
62.36,22.68
62.36,19.84
61.42,17.95
61.42,19.84
59.53,20.79
55.75,18.90
54.80,19.84
54.80,18.90
45.35,12.28
51.97,12.28
50.08,14.17
48.19,13.23
49.13,13.23
38.74,27.40
44.41,22.68
52.91,27.40
51.02,29.29
48.19,28.35
41.57,28.35
38.74,29.29
36.85,27.40
41.57,22.68
45.35,26.46
45.35,24.57
46.30,25.51
50.08,24.57
48.19,23.62
46.30,19.84
49.13,20.79
47.24,18.90
51.97,18.90
57.64,23.62
55.75,23.62
64.25,33.07
61.42,28.35
63.31,28.35
63.31,30.24
61.42,27.40
63.31,26.46
63.31,25.51
57.64,27.40
58.58,29.29
56.69,29.29
59.53,35.91
56.69,34.96
57.64,34.02
58.58,34.96
57.64,36.85
57.64,34.96
49.13,29.29
51.97,25.51
52.91,26.46
51.02,20.79
51.97,8.50
51.02,9.45
51.02,10.39
51.02,12.28
50.08,15.12
53.86,12.28
54.80,17.01
57.64,15.12
55.75,14.17
55.75,12.28
53.86,10.39
55.75,9.45
44.41,6.61
43.46,7.56
41.57,7.56
39.69,8.50
37.80,7.56
36.85,8.50
37.80,12.28
34.02,15.12
31.18,15.12
26.46,14.17
31.18,11.34
33.07,10.39
33.07,5.67
34.02,5.67
40.63,5.67
49.13,9.45
49.13,10.39
46.30,14.17
47.24,14.17
47.24,15.12
50.08,17.95
50.08,17.01
33.07,38.74
35.91,37.80
36.85,35.91
37.80,35.91
36.85,37.80
37.80,37.80
38.74,34.96
34.02,34.02
34.02,34.96
34.02,35.91
37.80,34.02
36.85,33.07
33.07,33.07
34.96,32.13
39.69,19.84
44.41,21.73
46.30,20.79
44.41,20.79
45.35,19.84
46.30,18.90
48.19,17.95
48.19,17.01
47.24,17.95
44.41,11.34
47.24,11.34
45.35,10.39
25.51,20.79
24.57,18.90
26.46,17.01
44.41,8.50
45.35,8.50
51.02,7.56
53.86,8.50
52.91,9.45
52.91,11.34
52.91,12.28
60.47,18.90
56.69,18.90
56.69,17.95
58.58,24.57
54.80,26.46
57.64,26.46
58.58,25.51
61.42,23.62
60.47,23.62
56.69,20.79
52.91,22.68
52.91,20.79
49.13,23.62
51.02,23.62
51.97,38.74
46.30,38.74
46.30,37.80
51.02,34.02
46.30,35.91
47.24,34.96
52.91,37.80
52.91,35.91
51.02,35.91
50.08,36.85
49.13,37.80
47.24,39.69
48.19,55.75
52.91,49.13
45.35,53.86
45.35,50.08
44.41,51.97
44.41,50.08
43.46,51.02
44.41,52.91
47.24,51.02
45.35,49.13
47.24,50.08
46.30,51.02
47.24,51.97
52.91,55.75
51.97,52.91
54.80,52.91
54.80,51.97
53.86,50.08
53.86,56.69
52.91,57.64
51.97,58.58
52.91,56.69
49.13,55.75
51.02,53.86
50.08,51.97
51.02,51.02
50.08,49.13
51.97,49.13
49.13,50.08
49.13,48.19
42.52,51.97
42.52,50.08
43.46,50.08
44.41,49.13
42.52,49.13
47.24,54.80
47.24,53.86
46.30,54.80
53.86,81.26
62.36,81.26
59.53,79.37
58.58,80.31
56.69,78.43
54.80,77.48
56.69,77.48
52.91,75.59
53.86,74.65
55.75,73.70
53.86,72.76
53.86,72.76
59.53,71.81
55.75,68.98
58.58,68.98
59.53,70.87
59.53,69.92
40.63,67.09
37.80,65.20
34.02,64.25
36.85,67.09
40.63,65.20
43.46,68.98
39.69,68.03
43.46,68.03
45.35,65.20
48.19,66.14
50.08,70.87
54.80,87.87
53.86,86.93
51.02,91.65
54.80,92.60
55.75,91.65
58.58,87.87
58.58,85.98
63.31,88.82
65.20,85.98
67.09,87.87
68.03,86.93
68.98,86.93
72.76,80.31
71.81,84.09
70.87,85.04
72.76,85.98
70.87,88.82
67.09,91.65
65.20,88.82
62.36,89.76
61.42,88.82
62.36,88.82
56.69,92.60
46.30,85.04
49.13,83.15
49.13,81.26
51.02,85.04
51.02,78.43
51.02,77.48
52.91,76.54
53.86,78.43
55.75,85.98
55.75,84.09
65.20,84.09
64.25,83.15
68.03,82.20
69.92,79.37
70.87,79.37
64.25,81.26
65.20,80.31
65.20,78.43
64.25,78.43
59.53,75.59
59.53,73.70
61.42,75.59
62.36,75.59
56.69,88.82
57.64,87.87
59.53,88.82
57.64,89.76
32.13,89.76
15.12,77.48
13.23,80.31
12.28,82.20
10.39,79.37
11.34,78.43
11.34,77.48
17.95,71.81
22.68,76.54
20.79,76.54
21.73,77.48
23.62,77.48
22.68,79.37
24.57,82.20
27.40,85.04
29.29,81.26
28.35,85.04
29.29,84.09
30.24,82.20
30.24,84.09
3.78,78.43
6.61,76.54
7.56,76.54
11.34,73.70
9.45,74.65
9.45,72.76
10.39,71.81
9.45,69.92
8.50,69.92
8.50,68.98
9.45,68.03
14.17,69.92
13.23,68.98
14.17,68.98
15.12,68.98
16.06,71.81
3.78,79.37
11.34,75.59
6.61,85.04
11.34,89.76
10.39,85.98
17.01,89.76
5.67,86.93
10.39,90.71
9.45,88.82
7.56,90.71
5.67,87.87
13.23,83.15
14.17,82.20
14.17,81.26
16.06,79.37
16.06,75.59
15.12,73.70
15.12,73.70
17.95,73.70
18.90,70.87
18.90,68.98
17.01,71.81
20.79,75.59
17.95,77.48
17.95,78.43
" />
<polyline fill="none" stroke="#312B2B" stroke-width="1.0" stroke-opacity="1" points="
28.35,7.56
31.18,9.45
32.13,8.50
32.13,6.61
30.24,7.56
30.24,6.61
21.73,10.39
21.73,12.28
18.90,13.23
19.84,12.28
17.01,15.12
18.90,12.28
21.73,32.13
17.01,19.84
18.90,19.84
18.90,18.90
18.90,17.95
16.06,43.46
17.95,44.41
17.95,40.63
17.95,40.63
17.95,34.02
18.90,33.07
19.84,34.02
19.84,39.69
20.79,39.69
18.90,38.74
18.90,35.91
12.28,31.18
17.01,26.46
17.01,27.40
12.28,27.40
11.34,25.51
11.34,26.46
9.45,30.24
9.45,29.29
9.45,28.35
12.28,36.85
13.23,35.91
13.23,35.91
11.34,41.57
10.39,40.63
11.34,38.74
11.34,36.85
10.39,38.74
12.28,40.63
12.28,41.57
14.17,42.52
15.12,44.41
14.17,33.07
13.23,33.07
13.23,34.02
38.74,26.46
37.80,27.40
36.85,30.24
32.13,18.90
34.96,15.12
39.69,11.34
23.62,10.39
23.62,13.23
27.40,11.34
26.46,11.34
24.57,12.28
27.40,15.12
30.24,16.06
30.24,17.01
34.02,14.17
46.30,29.29
41.57,29.29
39.69,28.35
43.46,22.68
44.41,23.62
60.47,12.28
57.64,12.28
57.64,13.23
61.42,14.17
58.58,16.06
58.58,17.95
59.53,16.06
60.47,17.95
60.47,17.01
61.42,16.06
63.31,41.57
59.53,39.69
58.58,37.80
58.58,36.85
57.64,37.80
51.97,29.29
51.97,30.24
52.91,29.29
51.97,28.35
51.97,26.46
47.24,27.40
45.35,27.40
44.41,28.35
42.52,28.35
43.46,26.46
39.69,22.68
41.57,21.73
40.63,21.73
40.63,20.79
43.46,18.90
43.46,19.84
44.41,18.90
39.69,15.12
36.85,14.17
22.68,29.29
21.73,27.40
21.73,29.29
29.29,28.35
26.46,24.57
27.40,21.73
28.35,20.79
28.35,22.68
33.07,26.46
30.24,27.40
30.24,25.51
26.46,26.46
23.62,22.68
22.68,27.40
25.51,28.35
27.40,27.40
25.51,27.40
20.79,16.06
21.73,17.01
24.57,17.95
26.46,15.12
27.40,16.06
30.24,12.28
39.69,25.51
32.13,24.57
39.69,12.28
33.07,7.56
34.02,10.39
35.91,8.50
35.91,8.50
37.80,10.39
37.80,9.45
40.63,9.45
40.63,8.50
42.52,7.56
35.91,5.67
35.91,6.61
38.74,5.67
39.69,6.61
43.46,5.67
48.19,6.61
47.24,9.45
46.30,10.39
49.13,11.34
52.91,17.01
52.91,13.23
57.64,10.39
54.80,10.39
62.36,36.85
61.42,36.85
61.42,36.85
60.47,38.74
61.42,44.41
62.36,44.41
58.58,42.52
60.47,42.52
61.42,41.57
64.25,36.85
64.25,34.02
63.31,34.02
63.31,34.96
64.25,38.74
63.31,40.63
60.47,37.80
60.47,36.85
57.64,39.69
58.58,45.35
57.64,44.41
57.64,43.46
60.47,45.35
55.75,50.08
56.69,48.19
57.64,49.13
57.64,50.08
55.75,51.97
52.91,48.19
42.52,73.70
22.68,55.75
20.79,61.42
23.62,62.36
19.84,56.69
18.90,49.13
21.73,51.97
20.79,52.91
19.84,51.97
19.84,51.02
16.06,50.08
14.17,48.19
13.23,46.30
15.12,46.30
17.01,44.41
17.01,40.63
17.01,39.69
15.12,34.96
19.84,29.29
18.90,27.40
18.90,26.46
14.17,22.68
16.06,22.68
16.06,21.73
16.06,17.01
16.06,16.06
17.95,16.06
17.95,17.95
25.51,9.45
24.57,8.50
23.62,9.45
26.46,13.23
29.29,9.45
29.29,9.45
28.35,12.28
30.24,14.17
29.29,14.17
27.40,19.84
24.57,19.84
22.68,18.90
20.79,20.79
22.68,22.68
23.62,26.46
34.96,39.69
36.85,38.74
34.96,38.74
34.02,39.69
30.24,38.74
31.18,36.85
31.18,37.80
31.18,37.80
30.24,36.85
32.13,34.96
30.24,30.24
28.35,30.24
30.24,32.13
34.02,32.13
37.80,34.96
38.74,34.02
35.91,31.18
41.57,30.24
48.19,24.57
47.24,22.68
47.24,24.57
44.41,25.51
50.08,21.73
52.91,24.57
53.86,22.68
51.97,20.79
52.91,18.90
59.53,34.02
60.47,34.02
55.75,32.13
55.75,33.07
55.75,33.07
52.91,33.07
52.91,34.02
54.80,34.96
51.97,37.80
47.24,38.74
48.19,37.80
47.24,37.80
45.35,37.80
45.35,35.91
64.25,26.46
63.31,24.57
63.31,21.73
59.53,21.73
60.47,22.68
59.53,19.84
59.53,19.84
59.53,11.34
57.64,12.28
40.63,18.90
38.74,16.06
47.24,12.28
46.30,13.23
51.97,10.39
50.08,10.39
50.08,9.45
51.02,8.50
50.08,7.56
48.19,9.45
31.18,29.29
32.13,31.18
34.02,31.18
36.85,23.62
35.91,24.57
34.96,23.62
36.85,20.79
28.35,19.84
29.29,21.73
29.29,20.79
30.24,19.84
32.13,20.79
34.96,17.95
34.96,17.01
33.07,18.90
34.02,19.84
31.18,5.67
34.96,6.61
34.96,7.56
38.74,8.50
39.69,7.56
40.63,12.28
44.41,10.39
42.52,8.50
46.30,6.61
41.57,5.67
45.35,9.45
41.57,10.39
45.35,15.12
38.74,33.07
39.69,34.96
38.74,37.80
38.74,35.91
33.07,36.85
33.07,34.96
34.96,34.96
35.91,34.02
35.91,34.02
31.18,34.02
30.24,33.07
29.29,38.74
37.80,36.85
29.29,60.47
34.02,62.36
40.63,66.14
43.46,65.20
45.35,64.25
42.52,64.25
40.63,64.25
38.74,64.25
33.07,66.14
34.02,49.13
33.07,52.91
32.13,51.02
32.13,50.08
31.18,51.02
32.13,49.13
35.91,52.91
31.18,51.97
33.07,51.02
34.02,51.97
34.96,50.08
34.96,48.19
35.91,48.19
49.13,53.86
49.13,51.97
50.08,52.91
51.02,56.69
49.13,59.53
47.24,55.75
41.57,52.91
43.46,52.91
44.41,53.86
39.69,54.80
41.57,49.13
40.63,49.13
57.64,48.19
60.47,49.13
58.58,49.13
51.02,51.97
54.80,53.86
54.80,55.75
55.75,53.86
45.35,68.98
41.57,70.87
40.63,68.98
38.74,68.03
37.80,66.14
37.80,68.03
52.91,90.71
53.86,95.43
49.13,94.49
45.35,91.65
49.13,92.60
51.02,92.60
47.24,87.87
48.19,86.93
43.46,88.82
50.08,88.82
48.19,85.04
48.19,82.20
47.24,83.15
47.24,84.09
46.30,84.09
44.41,87.87
47.24,96.38
52.91,93.54
51.97,92.60
51.02,93.54
38.74,96.38
25.51,92.60
19.84,94.49
22.68,91.65
13.23,91.65
6.61,91.65
8.50,69.92
11.34,68.03
7.56,74.65
16.06,87.87
14.17,84.09
12.28,85.98
10.39,84.09
11.34,82.20
10.39,81.26
8.50,80.31
8.50,78.43
9.45,78.43
9.45,78.43
4.72,82.20
6.61,78.43
5.67,76.54
6.61,75.59
27.40,86.93
24.57,87.87
32.13,92.60
31.18,90.71
26.46,87.87
25.51,90.71
18.90,84.09
18.90,83.15
19.84,82.20
17.01,79.37
19.84,77.48
20.79,78.43
28.35,80.31
26.46,78.43
23.62,76.54
27.40,81.26
25.51,81.26
24.57,81.26
25.51,80.31
22.68,81.26
25.51,84.09
26.46,84.09
20.79,88.82
19.84,88.82
18.90,87.87
20.79,86.93
22.68,88.82
24.57,90.71
28.35,92.60
23.62,94.49
20.79,95.43
19.84,92.60
20.79,92.60
21.73,94.49
34.02,84.09
28.35,94.49
41.57,93.54
37.80,91.65
38.74,91.65
38.74,90.71
34.02,92.60
35.91,89.76
34.96,87.87
34.96,85.98
30.24,87.87
32.13,83.15
31.18,84.09
32.13,85.04
28.35,87.87
29.29,85.04
8.50,90.71
7.56,89.76
9.45,84.09
8.50,85.04
8.50,84.09
22.68,66.14
20.79,71.81
17.01,77.48
14.17,86.93
12.28,87.87
11.34,85.98
13.23,81.26
11.34,79.37
11.34,79.37
14.17,74.65
12.28,69.92
10.39,73.70
11.34,70.87
12.28,72.76
13.23,72.76
12.28,76.54
14.17,78.43
16.06,77.48
14.17,75.59
22.68,77.48
19.84,75.59
19.84,74.65
23.62,67.09
23.62,68.98
22.68,69.92
20.79,69.92
20.79,67.09
15.12,70.87
" />
<polyline fill="none" stroke="#312B2B" stroke-width="1.0" stroke-opacity="1" points="
64.25,31.18
54.80,30.24
55.75,27.40
52.91,28.35
53.86,29.29
59.53,32.13
56.69,32.13
56.69,31.18
62.36,31.18
61.42,29.29
61.42,29.29
59.53,22.68
53.86,25.51
48.19,25.51
50.08,27.40
49.13,28.35
48.19,29.29
47.24,29.29
47.24,28.35
31.18,25.51
32.13,27.40
23.62,30.24
22.68,30.24
20.79,43.46
21.73,45.35
21.73,43.46
21.73,41.57
15.12,24.57
11.34,29.29
11.34,28.35
10.39,26.46
13.23,24.57
12.28,24.57
15.12,17.95
16.06,15.12
17.01,14.17
23.62,20.79
26.46,21.73
26.46,22.68
26.46,22.68
29.29,24.57
31.18,21.73
19.84,13.23
20.79,13.23
22.68,11.34
21.73,11.34
19.84,11.34
19.84,12.28
26.46,16.06
22.68,17.01
22.68,17.95
23.62,18.90
14.17,26.46
11.34,31.18
10.39,33.07
10.39,37.80
10.39,37.80
14.17,38.74
14.17,39.69
11.34,39.69
10.39,41.57
17.95,51.02
17.95,50.08
17.01,51.02
18.90,52.91
17.95,51.97
24.57,53.86
23.62,55.75
22.68,53.86
17.95,41.57
18.90,41.57
18.90,41.57
18.90,39.69
19.84,38.74
19.84,22.68
20.79,21.73
21.73,22.68
21.73,26.46
20.79,28.35
22.68,28.35
29.29,32.13
39.69,23.62
40.63,24.57
37.80,23.62
37.80,19.84
38.74,17.95
36.85,16.06
42.52,18.90
42.52,20.79
43.46,21.73
43.46,23.62
50.08,29.29
54.80,25.51
55.75,17.01
53.86,17.01
53.86,15.12
51.02,17.01
48.19,15.12
51.02,13.23
51.97,13.23
53.86,11.34
53.86,9.45
54.80,8.50
58.58,10.39
58.58,15.12
61.42,13.23
62.36,18.90
62.36,21.73
64.25,25.51
64.25,23.62
63.31,22.68
61.42,25.51
60.47,23.62
61.42,22.68
56.69,38.74
48.19,34.02
58.58,35.91
59.53,42.52
58.58,40.63
58.58,41.57
62.36,37.80
62.36,37.80
61.42,40.63
62.36,43.46
60.47,44.41
62.36,46.30
62.36,45.35
59.53,47.24
61.42,48.19
55.75,47.24
52.91,50.08
50.08,57.64
33.07,53.86
30.24,51.97
30.24,50.08
32.13,48.19
35.91,51.02
34.96,51.02
35.91,51.97
41.57,53.86
43.46,51.97
41.57,51.97
41.57,50.08
48.19,50.08
46.30,51.97
46.30,39.69
45.35,38.74
45.35,41.57
50.08,38.74
51.02,38.74
50.08,39.69
51.97,39.69
55.75,36.85
53.86,37.80
54.80,35.91
55.75,35.91
61.42,31.18
51.97,17.01
50.08,18.90
49.13,22.68
48.19,21.73
53.86,23.62
53.86,24.57
50.08,23.62
44.41,20.79
47.24,19.84
46.30,17.95
44.41,19.84
30.24,10.39
42.52,15.12
38.74,12.28
36.85,12.28
35.91,9.45
34.96,11.34
34.96,10.39
32.13,7.56
31.18,8.50
28.35,7.56
27.40,10.39
32.13,12.28
29.29,13.23
27.40,13.23
26.46,20.79
26.46,20.79
14.17,24.57
17.95,20.79
17.01,22.68
17.01,18.90
17.95,18.90
15.12,16.06
14.17,21.73
15.12,20.79
15.12,19.84
14.17,18.90
14.17,17.01
18.90,11.34
26.46,7.56
26.46,9.45
25.51,14.17
24.57,14.17
22.68,16.06
20.79,18.90
20.79,18.90
15.12,37.80
17.95,35.91
18.90,36.85
15.12,40.63
18.90,46.30
18.90,48.19
13.23,44.41
13.23,42.52
11.34,43.46
10.39,42.52
9.45,33.07
9.45,31.18
9.45,31.18
16.06,37.80
16.06,28.35
13.23,29.29
13.23,31.18
10.39,34.96
13.23,37.80
12.28,34.96
39.69,32.13
38.74,30.24
37.80,29.29
40.63,25.51
40.63,26.46
53.86,33.07
54.80,32.13
57.64,24.57
56.69,25.51
53.86,17.95
54.80,11.34
57.64,14.17
57.64,17.01
58.58,19.84
57.64,18.90
56.69,19.84
56.69,22.68
55.75,21.73
54.80,15.12
57.64,13.23
62.36,17.95
60.47,20.79
60.47,19.84
60.47,13.23
50.08,6.61
49.13,6.61
46.30,8.50
45.35,11.34
44.41,12.28
29.29,18.90
30.24,17.95
32.13,17.01
31.18,17.01
27.40,17.95
28.35,18.90
32.13,21.73
27.40,28.35
28.35,24.57
32.13,29.29
33.07,30.24
34.02,29.29
34.96,30.24
35.91,28.35
37.80,28.35
35.91,38.74
32.13,38.74
31.18,39.69
30.24,39.69
29.29,39.69
28.35,37.80
31.18,36.85
31.18,34.96
28.35,36.85
29.29,34.02
12.28,25.51
27.40,25.51
26.46,23.62
24.57,22.68
23.62,24.57
42.52,21.73
41.57,19.84
41.57,20.79
40.63,19.84
37.80,17.95
36.85,18.90
36.85,19.84
38.74,21.73
34.96,21.73
33.07,25.51
37.80,24.57
51.97,17.95
51.97,17.95
32.13,5.67
34.96,8.50
34.02,11.34
32.13,10.39
30.24,9.45
31.18,9.45
39.69,4.72
41.57,9.45
43.46,10.39
43.46,10.39
52.91,15.12
50.08,16.06
47.24,14.17
46.30,16.06
48.19,18.90
49.13,17.01
39.69,16.06
27.40,22.68
26.46,18.90
25.51,17.01
25.51,18.90
23.62,17.01
22.68,12.28
17.95,17.01
17.01,15.12
18.90,14.17
17.95,13.23
17.95,14.17
25.51,21.73
27.40,30.24
29.29,29.29
29.29,31.18
24.57,31.18
23.62,32.13
20.79,33.07
20.79,31.18
18.90,30.24
18.90,32.13
19.84,30.24
20.79,29.29
20.79,26.46
18.90,27.40
18.90,28.35
18.90,28.35
8.50,31.18
12.28,28.35
14.17,27.40
15.12,26.46
17.95,26.46
17.95,24.57
16.06,23.62
13.23,22.68
10.39,28.35
10.39,27.40
9.45,27.40
23.62,51.02
23.62,51.97
33.07,63.31
34.02,63.31
35.91,64.25
34.96,64.25
55.75,83.15
59.53,83.15
62.36,83.15
60.47,85.98
63.31,87.87
71.81,80.31
69.92,80.31
70.87,82.20
65.20,87.87
68.03,91.65
62.36,90.71
61.42,91.65
61.42,92.60
60.47,92.60
58.58,89.76
57.64,90.71
58.58,90.71
65.20,85.04
63.31,85.98
68.03,87.87
68.98,88.82
67.09,89.76
68.03,89.76
68.98,90.71
75.59,87.87
72.76,90.71
73.70,86.93
74.65,90.71
72.76,92.60
76.54,84.09
75.59,85.04
73.70,80.31
73.70,80.31
68.03,85.04
55.75,74.65
53.86,77.48
56.69,80.31
54.80,80.31
54.80,80.31
46.30,90.71
47.24,92.60
41.57,91.65
41.57,90.71
39.69,91.65
41.57,92.60
40.63,92.60
35.91,96.38
37.80,96.38
42.52,94.49
48.19,95.43
47.24,94.49
52.91,85.04
51.97,82.20
51.97,81.26
49.13,80.31
55.75,87.87
51.02,86.93
51.97,87.87
52.91,88.82
64.25,80.31
63.31,80.31
57.64,75.59
58.58,75.59
60.47,76.54
56.69,79.37
58.58,79.37
59.53,80.31
58.58,81.26
60.47,82.20
61.42,81.26
55.75,84.09
57.64,88.82
60.47,87.87
59.53,85.04
63.31,85.04
63.31,83.15
67.09,86.93
68.98,85.04
68.03,84.09
68.98,82.20
68.03,81.26
66.14,78.43
51.97,69.92
51.97,71.81
51.97,73.70
51.02,76.54
51.97,75.59
58.58,70.87
56.69,70.87
54.80,69.92
52.91,67.09
51.02,68.03
51.02,67.09
50.08,66.14
49.13,64.25
50.08,69.92
49.13,69.92
51.97,72.76
52.91,73.70
52.91,71.81
51.02,69.92
60.47,73.70
59.53,72.76
58.58,72.76
46.30,90.71
42.52,90.71
42.52,91.65
45.35,92.60
44.41,91.65
43.46,89.76
63.31,93.54
63.31,89.76
65.20,90.71
64.25,87.87
68.98,91.65
67.09,93.54
72.76,82.20
71.81,85.98
72.76,87.87
72.76,85.04
73.70,84.09
74.65,86.93
74.65,86.93
75.59,81.26
74.65,81.26
72.76,83.15
68.98,83.15
63.31,78.43
55.75,81.26
52.91,98.27
55.75,94.49
54.80,94.49
54.80,93.54
55.75,92.60
57.64,94.49
57.64,95.43
54.80,96.38
66.14,90.71
67.09,90.71
66.14,91.65
61.42,95.43
61.42,94.49
59.53,93.54
61.42,88.82
" />
<polyline fill="none" stroke="#312B2B" stroke-width="1.0" stroke-opacity="1" points="
24.57,78.43
23.62,80.31
20.79,79.37
19.84,78.43
19.84,80.31
17.95,81.26
5.67,94.49
8.50,94.49
18.90,92.60
17.95,90.71
14.17,89.76
15.12,92.60
18.90,94.49
17.95,94.49
18.90,93.54
29.29,91.65
27.40,90.71
28.35,90.71
26.46,86.93
25.51,86.93
25.51,86.93
19.84,91.65
17.95,88.82
17.95,85.98
17.95,85.98
22.68,85.04
23.62,83.15
20.79,80.31
15.12,87.87
13.23,87.87
14.17,92.60
13.23,92.60
12.28,92.60
11.34,90.71
7.56,93.54
6.61,92.60
5.67,93.54
5.67,88.82
5.67,79.37
8.50,82.20
6.61,85.98
6.61,85.98
6.61,81.26
9.45,81.26
9.45,82.20
10.39,88.82
11.34,87.87
12.28,88.82
17.01,80.31
17.95,79.37
17.95,80.31
7.56,69.92
7.56,71.81
7.56,73.70
10.39,75.59
6.61,79.37
5.67,75.59
3.78,84.09
5.67,83.15
4.72,83.15
3.78,80.31
4.72,77.48
3.78,77.48
18.90,67.09
21.73,66.14
21.73,67.09
17.95,75.59
17.01,74.65
17.01,74.65
12.28,67.09
10.39,67.09
9.45,69.92
8.50,68.03
8.50,68.98
9.45,68.03
10.39,71.81
9.45,72.76
10.39,74.65
11.34,74.65
33.07,83.15
25.51,82.20
27.40,84.09
36.85,92.60
32.13,93.54
31.18,92.60
31.18,93.54
34.02,91.65
31.18,91.65
35.91,85.98
35.91,86.93
34.96,89.76
37.80,91.65
37.80,88.82
36.85,88.82
36.85,89.76
26.46,81.26
27.40,78.43
31.18,82.20
29.29,82.20
19.84,90.71
18.90,88.82
20.79,82.20
21.73,83.15
20.79,84.09
21.73,85.98
24.57,85.04
23.62,84.09
21.73,93.54
27.40,94.49
27.40,93.54
34.96,96.38
34.02,95.43
30.24,95.43
30.24,95.43
52.91,95.43
52.91,94.49
50.08,94.49
51.02,89.76
51.02,90.71
50.08,90.71
49.13,88.82
53.86,82.20
53.86,83.15
54.80,85.04
52.91,85.98
53.86,86.93
52.91,87.87
43.46,75.59
40.63,79.37
45.35,69.92
39.69,67.09
44.41,66.14
40.63,69.92
48.19,58.58
50.08,61.42
52.91,53.86
53.86,53.86
57.64,51.02
55.75,51.02
48.19,51.02
45.35,55.75
41.57,56.69
46.30,58.58
46.30,57.64
45.35,57.64
51.02,80.31
49.13,84.09
48.19,83.15
50.08,80.31
49.13,79.37
49.13,78.43
53.86,75.59
58.58,78.43
58.58,78.43
56.69,76.54
55.75,75.59
52.91,79.37
51.97,80.31
56.69,68.03
53.86,68.03
51.97,68.03
58.58,68.03
56.69,69.92
52.91,69.92
36.85,78.43
40.63,77.48
38.74,79.37
41.57,80.31
43.46,77.48
43.46,79.37
38.74,70.87
39.69,81.26
36.85,79.37
24.57,54.80
32.13,61.42
31.18,58.58
30.24,64.25
32.13,63.31
32.13,65.20
31.18,65.20
31.18,62.36
32.13,62.36
20.79,56.69
20.79,55.75
19.84,60.47
19.84,59.53
18.90,57.64
18.90,58.58
25.51,60.47
24.57,59.53
21.73,62.36
21.73,60.47
24.57,61.42
24.57,56.69
25.51,57.64
23.62,56.69
22.68,58.58
19.84,53.86
21.73,49.13
22.68,48.19
21.73,46.30
20.79,45.35
21.73,44.41
22.68,44.41
19.84,40.63
19.84,42.52
15.12,49.13
17.01,49.13
17.95,48.19
17.01,48.19
16.06,40.63
14.17,43.46
14.17,44.41
13.23,46.30
13.23,47.24
12.28,45.35
13.23,45.35
40.63,51.02
38.74,46.30
34.96,47.24
37.80,47.24
51.02,47.24
48.19,45.35
48.19,48.19
45.35,48.19
40.63,48.19
34.96,54.80
34.96,51.97
28.35,50.08
32.13,54.80
33.07,54.80
28.35,51.02
29.29,57.64
28.35,58.58
29.29,59.53
47.24,68.98
45.35,71.81
45.35,70.87
41.57,71.81
39.69,69.92
34.02,65.20
38.74,63.31
43.46,64.25
44.41,63.31
48.19,63.31
45.35,64.25
38.74,66.14
36.85,65.20
33.07,67.09
34.96,68.03
35.91,66.14
36.85,66.14
39.69,64.25
39.69,66.14
47.24,68.03
63.31,88.82
71.81,87.87
66.14,85.04
67.09,85.04
67.09,82.20
65.20,82.20
66.14,79.37
65.20,79.37
64.25,77.48
60.47,77.48
55.75,73.70
56.69,73.70
61.42,76.54
61.42,74.65
61.42,74.65
71.81,82.20
72.76,79.37
71.81,79.37
70.87,80.31
68.03,78.43
68.98,81.26
68.03,80.31
63.31,82.20
62.36,81.26
61.42,80.31
64.25,78.43
55.75,95.43
51.02,97.32
51.02,95.43
51.97,96.38
57.64,85.98
58.58,86.93
57.64,84.09
56.69,85.04
57.64,86.93
62.36,91.65
64.25,90.71
69.92,85.04
69.92,84.09
70.87,83.15
75.59,94.49
65.20,86.93
72.76,94.49
73.70,92.60
73.70,92.60
75.59,88.82
75.59,90.71
74.65,89.76
63.31,94.49
54.80,97.32
44.41,87.87
47.24,87.87
45.35,85.04
42.52,89.76
42.52,88.82
39.69,93.54
34.96,94.49
34.96,93.54
37.80,92.60
33.07,87.87
33.07,87.87
30.24,85.98
30.24,85.04
16.06,94.49
20.79,96.38
19.84,95.43
7.56,91.65
13.23,78.43
11.34,76.54
9.45,76.54
11.34,77.48
18.90,85.04
12.28,85.04
15.12,82.20
17.01,87.87
6.61,95.43
8.50,95.43
9.45,95.43
14.17,94.49
8.50,93.54
8.50,92.60
7.56,82.20
4.72,85.98
5.67,85.98
9.45,89.76
9.45,88.82
11.34,86.93
10.39,86.93
15.12,80.31
15.12,78.43
17.95,83.15
17.95,82.20
20.79,83.15
23.62,75.59
21.73,75.59
20.79,73.70
18.90,71.81
17.01,69.92
17.01,68.98
17.95,69.92
15.12,72.76
14.17,71.81
13.23,69.92
12.28,68.03
11.34,69.92
10.39,69.92
11.34,67.09
18.90,69.92
21.73,70.87
21.73,68.98
22.68,68.03
24.57,68.03
23.62,69.92
47.24,76.54
48.19,80.31
46.30,83.15
47.24,85.98
49.13,87.87
48.19,85.98
50.08,85.98
51.97,88.82
58.58,91.65
59.53,91.65
58.58,93.54
56.69,94.49
54.80,92.60
52.91,92.60
51.02,92.60
34.96,97.32
40.63,97.32
41.57,96.38
46.30,96.38
49.13,96.38
48.19,97.32
51.97,98.27
76.54,92.60
76.54,83.15
73.70,83.15
72.76,84.09
73.70,85.98
73.70,85.04
67.09,96.38
64.25,96.38
66.14,92.60
64.25,92.60
64.25,91.65
61.42,87.87
63.31,84.09
66.14,84.09
64.25,83.15
65.20,83.15
54.80,82.20
56.69,76.54
42.52,69.92
42.52,72.76
44.41,73.70
45.35,72.76
47.24,73.70
45.35,76.54
45.35,74.65
43.46,74.65
44.41,71.81
53.86,57.64
54.80,56.69
52.91,55.75
53.86,54.80
53.86,55.75
51.97,57.64
45.35,52.91
45.35,51.02
46.30,52.91
49.13,52.91
51.97,48.19
50.08,48.19
59.53,45.35
57.64,40.63
62.36,33.07
62.36,33.07
62.36,35.91
61.42,35.91
64.25,32.13
63.31,32.13
61.42,33.07
59.53,34.96
58.58,34.96
51.02,27.40
48.19,26.46
52.91,31.18
53.86,31.18
37.80,38.74
36.85,37.80
35.91,34.96
43.46,29.29
45.35,29.29
53.86,39.69
55.75,38.74
46.30,36.85
44.41,36.85
45.35,46.30
50.08,35.91
48.19,35.91
47.24,35.91
57.64,33.07
56.69,34.02
57.64,47.24
56.69,50.08
56.69,43.46
63.31,42.52
62.36,41.57
64.25,37.80
64.25,37.80
64.25,40.63
61.42,43.46
62.36,44.41
46.30,67.09
42.52,68.03
54.80,49.13
51.97,49.13
47.24,45.35
48.19,43.46
49.13,39.69
38.74,36.85
40.63,34.96
39.69,34.02
39.69,33.07
40.63,34.02
39.69,29.29
40.63,30.24
40.63,29.29
47.24,25.51
46.30,25.51
46.30,22.68
47.24,21.73
51.97,19.84
52.91,22.68
56.69,17.01
51.97,21.73
51.02,25.51
61.42,30.24
64.25,28.35
64.25,27.40
64.25,27.40
54.80,26.46
53.86,27.40
54.80,28.35
" />
<polyline fill="none" stroke="#312B2B" stroke-width="1.0" stroke-opacity="1" points="
64.25,34.96
61.42,37.80
61.42,37.80
57.64,38.74
57.64,38.74
58.58,39.69
41.57,59.53
40.63,56.69
44.41,54.80
42.52,54.80
37.80,53.86
36.85,53.86
39.69,57.64
44.41,58.58
43.46,56.69
42.52,57.64
39.69,58.58
34.02,54.80
30.24,58.58
30.24,53.86
34.02,48.19
33.07,48.19
33.07,47.24
28.35,49.13
32.13,50.08
20.79,53.86
23.62,54.80
21.73,50.08
19.84,50.08
19.84,48.19
18.90,47.24
18.90,44.41
17.01,41.57
17.95,39.69
17.01,35.91
17.95,34.96
14.17,31.18
10.39,35.91
9.45,39.69
9.45,37.80
13.23,39.69
14.17,42.52
17.01,45.35
14.17,46.30
15.12,48.19
14.17,49.13
18.90,53.86
19.84,51.02
42.52,44.41
29.29,36.85
33.07,40.63
33.07,39.69
34.02,40.63
34.96,40.63
32.13,14.17
31.18,14.17
28.35,17.01
29.29,17.95
23.62,8.50
20.79,12.28
17.01,20.79
21.73,14.17
34.02,5.67
38.74,4.72
52.91,9.45
52.91,11.34
48.19,13.23
49.13,12.28
47.24,11.34
51.02,9.45
52.91,7.56
51.02,6.61
44.41,5.67
47.24,6.61
45.35,8.50
33.07,15.12
38.74,14.17
34.02,8.50
38.74,6.61
37.80,7.56
38.74,7.56
45.35,16.06
43.46,17.01
42.52,17.95
41.57,18.90
51.02,34.02
51.97,34.02
51.02,33.07
51.97,31.18
48.19,28.35
41.57,24.57
40.63,22.68
38.74,23.62
37.80,33.07
32.13,30.24
28.35,27.40
29.29,27.40
29.29,26.46
31.18,26.46
32.13,26.46
33.07,27.40
33.07,29.29
36.85,26.46
37.80,27.40
35.91,29.29
34.96,31.18
41.57,27.40
53.86,18.90
61.42,26.46
63.31,19.84
62.36,14.17
62.36,17.01
51.02,15.12
48.19,14.17
46.30,12.28
49.13,9.45
48.19,8.50
46.30,9.45
54.80,14.17
52.91,14.17
55.75,11.34
57.64,10.39
55.75,9.45
56.69,9.45
55.75,10.39
53.86,7.56
53.86,8.50
59.53,24.57
60.47,33.07
57.64,29.29
58.58,28.35
57.64,27.40
52.91,30.24
42.52,30.24
41.57,29.29
42.52,29.29
47.24,16.06
46.30,15.12
45.35,14.17
42.52,17.01
40.63,15.12
41.57,13.23
39.69,12.28
36.85,8.50
34.96,14.17
33.07,13.23
34.02,16.06
36.85,17.01
19.84,38.74
20.79,34.96
20.79,36.85
21.73,38.74
22.68,46.30
22.68,33.07
23.62,33.07
28.35,32.13
18.90,23.62
18.90,20.79
19.84,18.90
19.84,19.84
21.73,19.84
21.73,21.73
22.68,23.62
20.79,23.62
24.57,28.35
24.57,26.46
26.46,27.40
28.35,26.46
31.18,20.79
31.18,15.12
30.24,16.06
29.29,15.12
26.46,10.39
30.24,6.61
30.24,7.56
31.18,6.61
34.02,4.72
33.07,4.72
13.23,24.57
12.28,27.40
11.34,36.85
13.23,41.57
9.45,40.63
21.73,37.80
20.79,38.74
15.12,44.41
11.34,42.52
11.34,44.41
19.84,27.40
21.73,28.35
23.62,30.24
19.84,33.07
20.79,34.02
21.73,32.13
21.73,33.07
17.01,37.80
11.34,24.57
10.39,25.51
16.06,20.79
16.06,18.90
15.12,18.90
42.52,25.51
43.46,24.57
51.97,24.57
49.13,17.95
50.08,17.95
51.97,18.90
52.91,17.01
51.97,16.06
54.80,40.63
51.02,40.63
48.19,44.41
49.13,45.35
50.08,50.08
47.24,58.58
42.52,63.31
43.46,63.31
44.41,62.36
34.96,62.36
32.13,60.47
32.13,57.64
31.18,56.69
23.62,63.31
22.68,62.36
20.79,60.47
20.79,62.36
16.06,89.76
15.12,90.71
17.95,91.65
17.95,92.60
16.06,92.60
16.06,91.65
17.01,89.76
26.46,89.76
24.57,86.93
23.62,87.87
27.40,92.60
30.24,90.71
30.24,89.76
29.29,88.82
34.96,91.65
21.73,96.38
26.46,90.71
29.29,90.71
27.40,85.04
24.57,83.15
24.57,81.26
18.90,78.43
18.90,79.37
20.79,74.65
28.35,81.26
27.40,83.15
45.35,93.54
44.41,93.54
39.69,94.49
40.63,96.38
41.57,97.32
51.02,82.20
48.19,81.26
45.35,87.87
46.30,88.82
45.35,85.98
44.41,86.93
40.63,75.59
39.69,75.59
36.85,77.48
37.80,74.65
37.80,68.98
33.07,68.98
32.13,66.14
31.18,66.14
6.61,76.54
7.56,75.59
6.61,74.65
9.45,70.87
7.56,70.87
7.56,68.98
8.50,69.92
18.90,68.03
14.17,72.76
15.12,74.65
16.06,76.54
17.01,75.59
17.95,74.65
17.01,72.76
17.01,73.70
14.17,77.48
12.28,75.59
13.23,74.65
12.28,83.15
11.34,83.15
4.72,93.54
7.56,92.60
6.61,93.54
7.56,95.43
6.61,96.38
4.72,95.43
4.72,94.49
3.78,93.54
7.56,86.93
11.34,81.26
7.56,79.37
2.83,83.15
6.61,82.20
17.95,86.93
21.73,88.82
18.90,85.98
19.84,84.09
20.79,85.98
27.40,96.38
27.40,95.43
31.18,96.38
29.29,92.60
30.24,92.60
33.07,94.49
43.46,91.65
42.52,92.60
43.46,92.60
31.18,83.15
34.96,85.04
34.96,85.04
36.85,86.93
36.85,86.93
30.24,91.65
21.73,95.43
22.68,94.49
22.68,90.71
23.62,91.65
25.51,88.82
27.40,88.82
34.02,92.60
34.02,89.76
31.18,87.87
18.90,80.31
20.79,76.54
20.79,77.48
22.68,75.59
26.46,77.48
26.46,79.37
30.24,80.31
32.13,82.20
32.13,82.20
28.35,80.31
53.86,77.48
50.08,79.37
51.02,79.37
48.19,74.65
49.13,66.14
50.08,64.25
51.02,66.14
51.97,66.14
51.02,68.98
59.53,68.98
59.53,71.81
60.47,72.76
60.47,69.92
52.91,73.70
53.86,73.70
53.86,73.70
60.47,84.09
60.47,84.09
59.53,86.93
52.91,89.76
54.80,90.71
56.69,91.65
58.58,88.82
55.75,87.87
55.75,85.04
48.19,90.71
48.19,92.60
51.97,90.71
53.86,90.71
53.86,87.87
53.86,84.09
51.02,84.09
52.91,78.43
54.80,79.37
57.64,78.43
58.58,76.54
58.58,76.54
60.47,76.54
58.58,71.81
56.69,72.76
53.86,69.92
39.69,83.15
41.57,79.37
45.35,80.31
44.41,79.37
43.46,80.31
27.40,71.81
36.85,69.92
34.96,78.43
38.74,81.26
37.80,81.26
36.85,80.31
38.74,78.43
47.24,65.20
47.24,62.36
49.13,61.42
50.08,58.58
45.35,56.69
50.08,53.86
49.13,54.80
48.19,53.86
47.24,54.80
47.24,46.30
35.91,39.69
39.69,38.74
40.63,35.91
39.69,36.85
38.74,34.96
32.13,37.80
32.13,33.07
33.07,32.13
28.35,29.29
28.35,29.29
32.13,27.40
40.63,20.79
38.74,20.79
38.74,18.90
40.63,17.01
46.30,23.62
45.35,17.95
44.41,17.95
36.85,5.67
37.80,5.67
43.46,4.72
49.13,5.67
40.63,8.50
38.74,10.39
37.80,10.39
35.91,14.17
35.91,13.23
32.13,9.45
25.51,15.12
24.57,17.01
23.62,17.95
25.51,19.84
24.57,19.84
20.79,17.95
26.46,7.56
25.51,7.56
26.46,8.50
30.24,13.23
30.24,14.17
28.35,15.12
25.51,17.95
17.95,12.28
14.17,16.06
12.28,22.68
15.12,32.13
17.95,33.07
17.95,32.13
17.95,29.29
17.01,27.40
15.12,30.24
15.12,28.35
17.95,21.73
13.23,21.73
17.01,16.06
17.01,16.06
17.01,17.95
29.29,10.39
29.29,11.34
30.24,12.28
31.18,11.34
35.91,25.51
26.46,34.96
28.35,39.69
27.40,38.74
18.90,59.53
19.84,61.42
42.52,45.35
37.80,44.41
35.91,49.13
34.96,49.13
34.96,49.13
40.63,53.86
39.69,51.97
37.80,56.69
39.69,55.75
38.74,55.75
39.69,56.69
41.57,55.75
44.41,51.02
43.46,54.80
44.41,53.86
58.58,51.02
59.53,49.13
59.53,50.08
59.53,50.08
61.42,49.13
61.42,47.24
59.53,46.30
60.47,45.35
60.47,46.30
60.47,34.96
57.64,37.80
52.91,35.91
51.02,36.85
" />
<polyline fill="none" stroke="#312B2B" stroke-width="1.0" stroke-opacity="1" points="
57.64,35.91
55.75,37.80
55.75,31.18
56.69,31.18
58.58,32.13
59.53,30.24
59.53,30.24
57.64,30.24
49.13,25.51
50.08,25.51
47.24,26.46
48.19,25.51
51.97,29.29
46.30,34.96
46.30,34.02
41.57,35.91
41.57,32.13
38.74,30.24
33.07,35.91
27.40,34.96
24.57,29.29
23.62,31.18
29.29,50.08
22.68,51.02
10.39,31.18
10.39,31.18
8.50,28.35
8.50,30.24
8.50,33.07
10.39,34.02
9.45,34.02
9.45,34.96
25.51,27.40
26.46,28.35
26.46,29.29
27.40,32.13
26.46,31.18
25.51,32.13
50.08,45.35
51.02,46.30
47.24,39.69
45.35,39.69
46.30,42.52
53.86,37.80
52.91,39.69
52.91,39.69
49.13,50.08
37.80,42.52
35.91,45.35
36.85,45.35
34.96,41.57
27.40,41.57
32.13,40.63
32.13,39.69
26.46,67.09
20.79,66.14
20.79,68.03
8.50,71.81
8.50,73.70
13.23,86.93
15.12,86.93
12.28,89.76
12.28,89.76
9.45,92.60
11.34,93.54
10.39,93.54
11.34,92.60
13.23,96.38
16.06,93.54
13.23,90.71
9.45,90.71
18.90,96.38
16.06,97.32
16.06,95.43
17.01,96.38
10.39,94.49
9.45,94.49
7.56,93.54
4.72,96.38
7.56,87.87
4.72,87.87
4.72,86.93
2.83,84.09
5.67,79.37
3.78,78.43
11.34,78.43
10.39,77.48
14.17,84.09
14.17,78.43
15.12,79.37
16.06,84.09
18.90,84.09
23.62,86.93
21.73,85.04
22.68,83.15
23.62,82.20
22.68,81.26
25.51,79.37
18.90,76.54
20.79,72.76
22.68,70.87
23.62,66.14
22.68,67.09
36.85,55.75
35.91,53.86
34.02,52.91
33.07,52.91
32.13,51.97
38.74,52.91
42.52,51.02
44.41,48.19
42.52,48.19
41.57,48.19
39.69,46.30
37.80,48.19
36.85,48.19
20.79,46.30
20.79,41.57
17.95,40.63
12.28,35.91
13.23,38.74
12.28,40.63
28.35,63.31
29.29,62.36
30.24,63.31
35.91,60.47
33.07,60.47
36.85,57.64
34.02,58.58
32.13,55.75
20.79,58.58
27.40,53.86
24.57,51.97
22.68,49.13
22.68,49.13
25.51,50.08
27.40,51.02
28.35,69.92
31.18,69.92
32.13,68.03
36.85,68.03
44.41,68.03
47.24,69.92
47.24,70.87
51.02,67.09
50.08,67.09
48.19,65.20
48.19,65.20
45.35,65.20
45.35,66.14
46.30,66.14
58.58,68.98
57.64,68.03
56.69,70.87
58.58,69.92
57.64,69.92
58.58,74.65
75.59,93.54
73.70,95.43
73.70,94.49
72.76,95.43
69.92,93.54
66.14,94.49
67.09,95.43
68.98,96.38
62.36,97.32
59.53,89.76
62.36,93.54
62.36,85.98
70.87,86.93
69.92,85.98
68.98,85.04
67.09,81.26
69.92,82.20
72.76,91.65
71.81,92.60
71.81,90.71
69.92,92.60
68.98,92.60
69.92,89.76
69.92,88.82
68.98,87.87
58.58,85.98
58.58,83.15
56.69,84.09
56.69,81.26
60.47,80.31
59.53,78.43
66.14,80.31
62.36,80.31
61.42,82.20
62.36,84.09
64.25,85.04
67.09,85.98
60.47,89.76
60.47,88.82
46.30,91.65
47.24,92.60
51.97,97.32
48.19,94.49
48.19,94.49
43.46,95.43
35.91,89.76
34.96,88.82
40.63,91.65
35.91,91.65
37.80,95.43
38.74,93.54
34.02,97.32
35.91,98.27
37.80,97.32
47.24,97.32
48.19,83.15
50.08,82.20
49.13,80.31
43.46,76.54
42.52,76.54
50.08,72.76
51.02,71.81
51.02,71.81
51.97,76.54
46.30,77.48
44.41,76.54
38.74,67.09
30.24,75.59
34.02,74.65
33.07,73.70
34.02,78.43
40.63,72.76
41.57,72.76
35.91,78.43
24.57,96.38
17.95,90.71
17.01,90.71
14.17,92.60
13.23,91.65
21.73,94.49
18.90,94.49
23.62,90.71
24.57,95.43
23.62,96.38
36.85,96.38
35.91,94.49
31.18,86.93
19.84,88.82
17.01,88.82
15.12,89.76
15.12,85.98
16.06,86.93
41.57,82.20
36.85,82.20
34.02,85.98
34.96,84.09
36.85,85.98
36.85,58.58
40.63,59.53
41.57,63.31
41.57,65.20
40.63,63.31
43.46,69.92
42.52,68.98
41.57,69.92
51.02,74.65
50.08,74.65
50.08,75.59
51.97,53.86
55.75,52.91
55.75,54.80
55.75,55.75
57.64,51.97
57.64,50.08
54.80,48.19
53.86,48.19
54.80,50.08
65.20,34.96
65.20,33.07
63.31,28.35
61.42,24.57
59.53,20.79
63.31,20.79
64.25,24.57
60.47,28.35
54.80,24.57
57.64,20.79
55.75,19.84
59.53,17.95
59.53,18.90
58.58,17.95
59.53,11.34
56.69,12.28
57.64,15.12
49.13,7.56
50.08,9.45
51.02,11.34
51.02,10.39
54.80,13.23
59.53,10.39
61.42,12.28
60.47,15.12
61.42,15.12
61.42,14.17
60.47,12.28
58.58,13.23
37.80,13.23
34.96,17.01
35.91,19.84
34.02,21.73
36.85,22.68
35.91,23.62
31.18,25.51
27.40,19.84
30.24,18.90
32.13,18.90
26.46,15.12
23.62,11.34
24.57,9.45
21.73,12.28
19.84,10.39
21.73,9.45
30.24,5.67
35.91,11.34
33.07,12.28
33.07,9.45
27.40,7.56
27.40,8.50
23.62,12.28
22.68,24.57
18.90,24.57
19.84,25.51
17.01,28.35
17.01,25.51
17.01,22.68
14.17,23.62
34.96,22.68
40.63,17.95
36.85,16.06
39.69,15.12
39.69,14.17
41.57,14.17
39.69,27.40
48.19,38.74
48.19,36.85
49.13,36.85
51.97,36.85
53.86,36.85
52.91,33.07
51.97,33.07
49.13,27.40
48.19,27.40
45.35,27.40
44.41,31.18
59.53,21.73
57.64,21.73
57.64,23.62
58.58,25.51
64.25,44.41
63.31,43.46
62.36,45.35
61.42,36.85
63.31,33.07
63.31,34.96
65.20,36.85
65.20,38.74
63.31,39.69
59.53,38.74
55.75,39.69
56.69,42.52
58.58,42.52
54.80,46.30
51.97,46.30
51.02,59.53
42.52,59.53
32.13,64.25
34.02,64.25
33.07,65.20
34.96,71.81
35.91,71.81
35.91,70.87
25.51,68.03
26.46,69.92
29.29,70.87
30.24,72.76
31.18,72.76
32.13,71.81
29.29,65.20
29.29,63.31
30.24,62.36
12.28,47.24
17.95,47.24
17.95,44.41
19.84,43.46
21.73,45.35
34.02,45.35
33.07,46.30
35.91,46.30
25.51,46.30
23.62,41.57
29.29,40.63
34.96,34.96
34.02,38.74
37.80,35.91
43.46,40.63
44.41,43.46
41.57,41.57
40.63,38.74
46.30,37.80
49.13,35.91
47.24,33.07
48.19,31.18
48.19,32.13
49.13,33.07
50.08,32.13
52.91,34.96
65.20,25.51
63.31,26.46
62.36,28.35
63.31,31.18
64.25,29.29
57.64,34.96
57.64,32.13
44.41,46.30
45.35,43.46
46.30,51.97
44.41,50.08
48.19,47.24
49.13,48.19
54.80,53.86
48.19,56.69
45.35,55.75
45.35,54.80
53.86,58.58
54.80,57.64
45.35,62.36
45.35,61.42
43.46,60.47
49.13,62.36
48.19,61.42
50.08,63.31
56.69,90.71
58.58,92.60
53.86,94.49
51.97,93.54
52.91,93.54
57.64,96.38
58.58,95.43
57.64,93.54
56.69,98.27
52.91,97.32
49.13,91.65
52.91,83.15
52.91,80.31
59.53,79.37
58.58,80.31
57.64,82.20
68.98,95.43
69.92,95.43
76.54,82.20
74.65,82.20
75.59,86.93
74.65,88.82
72.76,89.76
76.54,93.54
75.59,91.65
77.48,84.09
75.59,85.98
61.42,73.70
60.47,74.65
59.53,72.76
57.64,72.76
56.69,74.65
55.75,74.65
57.64,76.54
75.59,81.26
74.65,80.31
73.70,82.20
69.92,78.43
68.98,78.43
70.87,81.26
60.47,86.93
61.42,91.65
60.47,93.54
63.31,96.38
68.03,97.32
64.25,98.27
67.09,98.27
68.98,98.27
65.20,87.87
68.98,89.76
69.92,87.87
70.87,89.76
75.59,96.38
72.76,96.38
68.03,93.54
62.36,92.60
65.20,89.76
68.03,89.76
67.09,91.65
67.09,90.71
59.53,94.49
" />
</g>
</svg>
